/* XPM */
static char *result[] = {
/* columns rows colors chars-per-pixel */
"64 64 6 1 ",
"  c #1B1F21",
". c #2C354D",
"X c #404973",
"o c #63AB3F",
"O c #686F99",
"+ c #A3A7C2",
/* pixels */
"oooooooooooo........oooooooooooo........oooo............oooooooo",
"oooooooooooo........oooooooooooo........oooo............oooooooo",
"oooooooooooo........oooooooooooo........oooo............oooooooo",
"oooooooooooo........oooooooooooo........oooo............oooooooo",
"oooooooo....++++++++....oooo....++++++++....++++++++++++....oooo",
"oooooooo....++++++++....oooo....++++++++....++++++++++++....oooo",
"oooooooo....++++++++....oooo....++++++++....++++++++++++....oooo",
"oooooooo....++++++++....oooo....++++++++....++++++++++++....oooo",
"oooo....OOOO++++++++++++....++++++++OOOO++++++++++++++++OOOO....",
"oooo....OOOO++++++++++++....++++++++OOOO++++++++++++++++OOOO....",
"oooo....OOOO++++++++++++....++++++++OOOO++++++++++++++++OOOO....",
"oooo....OOOO++++++++++++....++++++++OOOO++++++++++++++++OOOO....",
"....OOOOOOOOOOOOOOOOOOOOXXXXOOOOOOOOOOOOXXXXOOOOOOOOOOOOOOOO....",
"....OOOOOOOOOOOOOOOOOOOOXXXXOOOOOOOOOOOOXXXXOOOOOOOOOOOOOOOO....",
"....OOOOOOOOOOOOOOOOOOOOXXXXOOOOOOOOOOOOXXXXOOOOOOOOOOOOOOOO....",
"....OOOOOOOOOOOOOOOOOOOOXXXXOOOOOOOOOOOOXXXXOOOOOOOOOOOOOOOO....",
"....XXXXOOOOOOOOOOOO    XXXXOOOOOOOOXXXX        OOOOXXXXXXXX....",
"....XXXXOOOOOOOOOOOO    XXXXOOOOOOOOXXXX        OOOOXXXXXXXX....",
"....XXXXOOOOOOOOOOOO    XXXXOOOOOOOOXXXX        OOOOXXXXXXXX....",
"....XXXXOOOOOOOOOOOO    XXXXOOOOOOOOXXXX        OOOOXXXXXXXX....",
"oooo....++++XXXXXXXX        XXXX            ++++XXXXXXXX....oooo",
"oooo....++++XXXXXXXX        XXXX            ++++XXXXXXXX....oooo",
"oooo....++++XXXXXXXX        XXXX            ++++XXXXXXXX....oooo",
"oooo....++++XXXXXXXX        XXXX            ++++XXXXXXXX....oooo",
"....++++OOOO                                    ++++++++....oooo",
"....++++OOOO                                    ++++++++....oooo",
"....++++OOOO                                    ++++++++....oooo",
"....++++OOOO                                    ++++++++....oooo",
"....XXXX                                        OOOOOOOOOOOO....",
"....XXXX                                        OOOOOOOOOOOO....",
"....XXXX                                        OOOOOOOOOOOO....",
"....XXXX                                        OOOOOOOOOOOO....",
"oooo....++++++++                                    XXXXOOOO....",
"oooo....++++++++                                    XXXXOOOO....",
"oooo....++++++++                                    XXXXOOOO....",
"oooo....++++++++                                    XXXXOOOO....",
"....++++OOOOOOOO                            ++++++++++++....oooo",
"....++++OOOOOOOO                            ++++++++++++....oooo",
"....++++OOOOOOOO                            ++++++++++++....oooo",
"....++++OOOOOOOO                            ++++++++++++....oooo",
"....OOOOOOOO                                    OOOOOOOO....oooo",
"....OOOOOOOO                                    OOOOOOOO....oooo",
"....OOOOOOOO                                    OOOOOOOO....oooo",
"....OOOOOOOO                                    OOOOOOOO....oooo",
"....XXXXXXXXXXXX++++++++            ++++++++OOOO++++OOOOXXXX....",
"....XXXXXXXXXXXX++++++++            ++++++++OOOO++++OOOOXXXX....",
"....XXXXXXXXXXXX++++++++            ++++++++OOOO++++OOOOXXXX....",
"....XXXXXXXXXXXX++++++++            ++++++++OOOO++++OOOOXXXX....",
"oooo....++++++++OOOOOOOOXXXX    OOOOOOOOOOOOOOOOXXXXOOOOXXXX....",
"oooo....++++++++OOOOOOOOXXXX    OOOOOOOOOOOOOOOOXXXXOOOOXXXX....",
"oooo....++++++++OOOOOOOOXXXX    OOOOOOOOOOOOOOOOXXXXOOOOXXXX....",
"oooo....++++++++OOOOOOOOXXXX    OOOOOOOOOOOOOOOOXXXXOOOOXXXX....",
"....XXXXOOOOOOOOOOOOOOOOXXXXXXXXOOOOOOOOXXXXOOOOXXXXXXXX....oooo",
"....XXXXOOOOOOOOOOOOOOOOXXXXXXXXOOOOOOOOXXXXOOOOXXXXXXXX....oooo",
"....XXXXOOOOOOOOOOOOOOOOXXXXXXXXOOOOOOOOXXXXOOOOXXXXXXXX....oooo",
"....XXXXOOOOOOOOOOOOOOOOXXXXXXXXOOOOOOOOXXXXOOOOXXXXXXXX....oooo",
"oooo....XXXXXXXXXXXX............XXXXXXXXXXXXXXXX........oooooooo",
"oooo....XXXXXXXXXXXX............XXXXXXXXXXXXXXXX........oooooooo",
"oooo....XXXXXXXXXXXX............XXXXXXXXXXXXXXXX........oooooooo",
"oooo....XXXXXXXXXXXX............XXXXXXXXXXXXXXXX........oooooooo",
"oooooooo............oooooooooooo................oooooooooooooooo",
"oooooooo............oooooooooooo................oooooooooooooooo",
"oooooooo............oooooooooooo................oooooooooooooooo",
"oooooooo............oooooooooooo................oooooooooooooooo"
};
