/* XPM */
static char *_47a55b355694d12a2e28c4db6bb71a3GsG8o9fUozQTdYu2[] = {
/* columns rows colors chars-per-pixel */
"64 64 6 1 ",
"  c black",
". c #3B7D4F",
"X c #63AB3F",
"o c #6ABE30",
"O c #99E550",
"+ c white",
/* pixels */
"XXXXXXXXXXXXXXXXXXXXXXXXXXXXXXXXXXXXXXXXXXXXXXXXXXXXXXXXXXXXXXXX",
"XXXXXXXXXXXXXXXXXXXXXXXXXXXXXXXXXXXXXXXXXXXXXXXXXXXXXXXXXXXXXXXX",
"XXXXXXXXXXXXXXXXXXXXXXXXXXXXXXXXXXXXXXXXXXXXXXXXXXXXXXXXXXXXXXXX",
"XXXXXXXXXXXXXXXXXXXXXXXXXXXXXXXXXXXXXXXXXXXXXXXXXXXXXXXXXXXXXXXX",
"XXXXXXXXXXXXXXXXXXXXXXXXXXXXXXXXXXXXXXXXXXXXXXXXXXXXXXXXXXXXXXXX",
"XXXXXXXXXXXXXXXXXXXXXXXXXXXXXXXXXXXXXXXXXXXXXXXXXXXXXXXXXXXXXXXX",
"XXXXXXXXXXXXXXXXXXXXXXXXXXXXXXXXXXXXXXXXXXXXXXXXXXXXXXXXXXXXXXXX",
"XXXXXXXXXXXXXXXXXXXXXXXXXXXXXXXXXXXXXXXXXXXXXXXXXXXXXXXXXXXXXXXX",
"XXXXXXXXXXXXXXXXXXXX....XXXXXXXXXXXXXXXXXXXXXXXXXXXXXXXXXXXXXXXX",
"XXXXXXXXXXXXXXXXXXXX....XXXXXXXXXXXXXXXXXXXXXXXXXXXXXXXXXXXXXXXX",
"XXXXXXXXXXXXXXXXXXXX....XXXXXXXXXXXXXXXXXXXXXXXXXXXXXXXXXXXXXXXX",
"XXXXXXXXXXXXXXXXXXXX....XXXXXXXXXXXXXXXXXXXXXXXXXXXXXXXXXXXXXXXX",
"                                                                ",
"                                                                ",
"                                                                ",
"                                                                ",
"                                                                ",
"                                                                ",
"  oooooooooooooooooooooooooooooooooooooooooooooooooooooooooooo  ",
"  oooooooooooooooooooooooooooooooooooooooooooooooooooooooooooo  ",
"  ++ooooOOOOOOOOOOOOOOOOOOoooooo++ooooooOOOOOOOOOOOOOOOOoooo++  ",
"  ++ooooOOOOOOOOOOOOOOOOOOoooooo++ooooooOOOOOOOOOOOOOOOOoooo++  ",
"  ooOOOOOOOOOOOOOOOOOOoooooo++++++++++ooooooOOOOOOOOOOOOOOOOoo  ",
"  ooOOOOOOOOOOOOOOOOOOoooooo++++++++++ooooooOOOOOOOOOOOOOOOOoo  ",
"  ooOOOOOOOOOOOOOOOOOOoooooo++++++++++ooooooOOOOOOOOOOOOOOOOoo  ",
"  ooOOOOOOOOOOOOOOOOOOoooooo++++++++++ooooooOOOOOOOOOOOOOOOOoo  ",
"  OOOOOOOOOOOOOOOOOOoooooo++oooo++oooo++ooooooOOOOOOOOOOOOOOOO  ",
"  OOOOOOOOOOOOOOOOOOoooooo++oooo++oooo++ooooooOOOOOOOOOOOOOOOO  ",
"  OOOOOOOOOOOOOOOOOOoooooooo++++++ooooooooooooOOOOOOOOOOOOOOOO  ",
"  OOOOOOOOOOOOOOOOOOoooooooo++++++ooooooooooooOOOOOOOOOOOOOOOO  ",
"  OOOOOOOOOOOOOOOOOOoooooooo++++++ooooooooooooOOOOOOOOOOOOOOOO  ",
"  OOOOOOOOOOOOOOOOOOoooooooo++++++ooooooooooooOOOOOOOOOOOOOOOO  ",
"  OOOOOOOOOOOOOOOOOOoooooooooooo++++++ooooooooOOOOOOOOOOOOOOOO  ",
"  OOOOOOOOOOOOOOOOOOoooooooooooo++++++ooooooooOOOOOOOOOOOOOOOO  ",
"  OOOOOOOOOOOOOOOOOOoooooo++oooo++oooo++ooooooOOOOOOOOOOOOOOOO  ",
"  OOOOOOOOOOOOOOOOOOoooooo++oooo++oooo++ooooooOOOOOOOOOOOOOOOO  ",
"  OOOOOOOOOOOOOOOOOOoooooo++oooo++oooo++ooooooOOOOOOOOOOOOOOOO  ",
"  OOOOOOOOOOOOOOOOOOoooooo++oooo++oooo++ooooooOOOOOOOOOOOOOOOO  ",
"  ooOOOOOOOOOOOOOOOOOOoooooo++++++++++ooooooOOOOOOOOOOOOOOOOoo  ",
"  ooOOOOOOOOOOOOOOOOOOoooooo++++++++++ooooooOOOOOOOOOOOOOOOOoo  ",
"  ++ooooOOOOOOOOOOOOOOOOOOoooooo++ooooooOOOOOOOOOOOOOOOOoooo++  ",
"  ++ooooOOOOOOOOOOOOOOOOOOoooooo++ooooooOOOOOOOOOOOOOOOOoooo++  ",
"  ++ooooOOOOOOOOOOOOOOOOOOoooooo++ooooooOOOOOOOOOOOOOOOOoooo++  ",
"  ++ooooOOOOOOOOOOOOOOOOOOoooooo++ooooooOOOOOOOOOOOOOOOOoooo++  ",
"  oooooooooooooooooooooooooooooooooooooooooooooooooooooooooooo  ",
"  oooooooooooooooooooooooooooooooooooooooooooooooooooooooooooo  ",
"                                                                ",
"                                                                ",
"                                                                ",
"                                                                ",
"                                                                ",
"                                                                ",
"XXXXXXXXXXXXXXXXXXXXXXXXXXXXXXXXXXXX....XXXX....XXXX........XXXX",
"XXXXXXXXXXXXXXXXXXXXXXXXXXXXXXXXXXXX....XXXX....XXXX........XXXX",
"XXXXXXXXXXXXXXXXXXXXXXXXXXXXXXXXXXXX....XXXX....XXXX........XXXX",
"XXXXXXXXXXXXXXXXXXXXXXXXXXXXXXXXXXXX....XXXX....XXXX........XXXX",
"XXXXXXXXXXXXXXXXXXXXXXXXXXXXXXXXXXXX........XXXXXXXX....XXXXXXXX",
"XXXXXXXXXXXXXXXXXXXXXXXXXXXXXXXXXXXX........XXXXXXXX....XXXXXXXX",
"XXXXXXXXXXXXXXXXXXXXXXXXXXXXXXXXXXXX........XXXXXXXX....XXXXXXXX",
"XXXXXXXXXXXXXXXXXXXXXXXXXXXXXXXXXXXX........XXXXXXXX....XXXXXXXX",
"XXXXXXXXXXXXXXXXXXXXXXXXXXXXXXXXXXXXXXXX....XXXXXXXXXXXXXXXXXXXX",
"XXXXXXXXXXXXXXXXXXXXXXXXXXXXXXXXXXXXXXXX....XXXXXXXXXXXXXXXXXXXX",
"XXXXXXXXXXXXXXXXXXXXXXXXXXXXXXXXXXXXXXXX....XXXXXXXXXXXXXXXXXXXX",
"XXXXXXXXXXXXXXXXXXXXXXXXXXXXXXXXXXXXXXXX....XXXXXXXXXXXXXXXXXXXX"
};
