/* XPM */
static char *ccf48790f5584f468d1fd45058f5e8edJalsNoUXjrghOV0x[] = {
/* columns rows colors chars-per-pixel */
"64 64 6 1 ",
"  c #3B2027",
". c #7D3833",
"X c #3B7D4F",
"o c #AB5130",
"O c #CF752B",
"+ c #63AB3F",
/* pixels */
"++++++++++++++++++++++++++++++++++++++++++++++++++++++++++++++++",
"++++++++++++++++++++++++++++++++++++++++++++++++++++++++++++++++",
"++++++++++++++++++++++++++++++++++++++++++++++++++++++++++++++++",
"++++++++++++++++++++++++++++++++++++++++++++++++++++++++++++++++",
"++++++++++++++++++++++++++++++++++++++++++++        ++++++++++++",
"++++++++++++++++++++++++++++++++++++++++++++        ++++++++++++",
"++++++++++++++++++++++++++++++++++++++++++++        ++++++++++++",
"++++++++++++++++++++++++++++++++++++++++++++        ++++++++++++",
"++++++++++++++++++++XXXX++++++++++++        ooooOOOO    ++++++++",
"++++++++++++++++++++XXXX++++++++++++        ooooOOOO    ++++++++",
"++++++++++++++++++++XXXX++++++++++++        ooooOOOO    ++++++++",
"++++++++++++++++++++XXXX++++++++++++        ooooOOOO    ++++++++",
"++++++++++++++++XXXXXXXX++++        ooooOOOOOOOOoooo    ++++++++",
"++++++++++++++++XXXXXXXX++++        ooooOOOOOOOOoooo    ++++++++",
"++++++++++++++++XXXXXXXX++++        ooooOOOOOOOOoooo    ++++++++",
"++++++++++++++++XXXXXXXX++++        ooooOOOOOOOOoooo    ++++++++",
"++++++++XXXX++++XXXXXXXX    ooooOOOOOOOOOOOOoooooooo    ++++++++",
"++++++++XXXX++++XXXXXXXX    ooooOOOOOOOOOOOOoooooooo    ++++++++",
"++++++++XXXX++++XXXXXXXX    ooooOOOOOOOOOOOOoooooooo    ++++++++",
"++++++++XXXX++++XXXXXXXX    ooooOOOOOOOOOOOOoooooooo    ++++++++",
"++++++++XXXX++++XXXX    OOOOOOOOOOOOoooo........oooo    ++++++++",
"++++++++XXXX++++XXXX    OOOOOOOOOOOOoooo........oooo    ++++++++",
"++++++++XXXX++++XXXX    OOOOOOOOOOOOoooo........oooo    ++++++++",
"++++++++XXXX++++XXXX    OOOOOOOOOOOOoooo........oooo    ++++++++",
"++++++++XXXXXXXX    OOOOOOOOOOOOoooo............oooo    ++++++++",
"++++++++XXXXXXXX    OOOOOOOOOOOOoooo............oooo    ++++++++",
"++++++++XXXXXXXX    OOOOOOOOOOOOoooo............oooo    ++++++++",
"++++++++XXXXXXXX    OOOOOOOOOOOOoooo............oooo    ++++++++",
"++++++++++++    OOOOOOOOoooo....................oooo    ++++++++",
"++++++++++++    OOOOOOOOoooo....................oooo    ++++++++",
"++++++++++++    OOOOOOOOoooo....................oooo    ++++++++",
"++++++++++++    OOOOOOOOoooo....................oooo    ++++++++",
"++++++++++++    oooo....................oooo....oooo    ++++++++",
"++++++++++++    oooo....................oooo....oooo    ++++++++",
"++++++++++++    oooo....................oooo....oooo    ++++++++",
"++++++++++++    oooo....................oooo....oooo    ++++++++",
"++++++++++++    ........oooo............oooo....oooo    ++++++++",
"++++++++++++    ........oooo............oooo....oooo    ++++++++",
"++++++++++++    ........oooo............oooo....oooo    ++++++++",
"++++++++++++    ........oooo............oooo....oooo    ++++++++",
"++++++++++++    ........oooo................oooo....oooo    ++++",
"++++++++++++    ........oooo................oooo....oooo    ++++",
"++++++++++++    ........oooo................oooo....oooo    ++++",
"++++++++++++    ........oooo................oooo....oooo    ++++",
"++++++++    oooo....oooo....................oooo........oooo    ",
"++++++++    oooo....oooo....................oooo........oooo    ",
"++++++++    oooo....oooo....................oooo........oooo    ",
"++++++++    oooo....oooo....................oooo........oooo    ",
"++++    oooo............        ............oooooooo        ++++",
"++++    oooo............        ............oooooooo        ++++",
"++++    oooo............        ............oooooooo        ++++",
"++++    oooo............        ............oooooooo        ++++",
"    oooo........        ++++++++        ........oooooooo    ++++",
"    oooo........        ++++++++        ........oooooooo    ++++",
"    oooo........        ++++++++        ........oooooooo    ++++",
"    oooo........        ++++++++        ........oooooooo    ++++",
"                ++++++++++++++++++++XXXX        ....oooooooo    ",
"                ++++++++++++++++++++XXXX        ....oooooooo    ",
"                ++++++++++++++++++++XXXX        ....oooooooo    ",
"                ++++++++++++++++++++XXXX        ....oooooooo    ",
"++++++++++++++++++++++++++++++++++++++++XXXX++++            ++++",
"++++++++++++++++++++++++++++++++++++++++XXXX++++            ++++",
"++++++++++++++++++++++++++++++++++++++++XXXX++++            ++++",
"++++++++++++++++++++++++++++++++++++++++XXXX++++            ++++"
};
