/* XPM */
static char *d07e6daa20c24203b564cc1105db7bebIHL7CAUIDSHPwVwe[] = {
/* columns rows colors chars-per-pixel */
"32 32 2 1 ",
"  c #3B7D4F",
". c #63AB3F",
/* pixels */
"................................",
"................................",
"................................",
"................................",
"..........  ....................",
"..........  ....................",
"........    ..  ................",
"........    ..  ................",
"....  ..    ..  ................",
"....  ..    ..  ................",
"....  ..  ..    ................",
"....  ..  ..    ................",
"....    ....  ..................",
"....    ....  ..................",
"......  ........................",
"......  ........................",
"................................",
"................................",
"................................",
"................................",
"........................  ......",
"........................  ......",
"......................    ..  ..",
"......................    ..  ..",
"..................  ..    ..  ..",
"..................  ..    ..  ..",
"..................  ..  ..    ..",
"..................  ..  ..    ..",
"..................    ....  ....",
"..................    ....  ....",
"....................  ..........",
"....................  .........."
};
