/* XPM */
static char *_602c35f69234cd4aeec881f3d6cea493KwMj8U6EoKt3Mfs[] = {
/* columns rows colors chars-per-pixel */
"64 64 2 1 ",
"  c #3B7D4F",
". c #63AB3F",
/* pixels */
"................................................................",
"................................................................",
"................................................................",
"................................................................",
"................................................................",
"................................................................",
"................................................................",
"................................................................",
"....................    ........................................",
"....................    ........................................",
"....................    ........................................",
"....................    ........................................",
"................        ....    ................................",
"................        ....    ................................",
"................        ....    ................................",
"................        ....    ................................",
"........    ....        ....    ................................",
"........    ....        ....    ................................",
"........    ....        ....    ................................",
"........    ....        ....    ................................",
"........    ....    ....        ................................",
"........    ....    ....        ................................",
"........    ....    ....        ................................",
"........    ....    ....        ................................",
"........        ........    ....................................",
"........        ........    ....................................",
"........        ........    ....................................",
"........        ........    ....................................",
"............    ................................................",
"............    ................................................",
"............    ................................................",
"............    ................................................",
"................................................................",
"................................................................",
"................................................................",
"................................................................",
"................................................................",
"................................................................",
"................................................................",
"................................................................",
"................................................    ............",
"................................................    ............",
"................................................    ............",
"................................................    ............",
"............................................        ....    ....",
"............................................        ....    ....",
"............................................        ....    ....",
"............................................        ....    ....",
"....................................    ....        ....    ....",
"....................................    ....        ....    ....",
"....................................    ....        ....    ....",
"....................................    ....        ....    ....",
"....................................    ....    ....        ....",
"....................................    ....    ....        ....",
"....................................    ....    ....        ....",
"....................................    ....    ....        ....",
"....................................        ........    ........",
"....................................        ........    ........",
"....................................        ........    ........",
"....................................        ........    ........",
"........................................    ....................",
"........................................    ....................",
"........................................    ....................",
"........................................    ...................."
};
