/* XPM */
static char *_535b94e52d24ce2f977dec5b01e81faggAIIgK36663YADc[] = {
/* columns rows colors chars-per-pixel */
"64 64 132 2 ",
"   c black",
".  c gray6",
"X  c gray12",
"o  c #261E17",
"O  c #2E2218",
"+  c gray14",
"@  c #2E2E2E",
"#  c #332D27",
"$  c #3F3127",
"%  c #3D362F",
"&  c #353535",
"*  c #3D3936",
"=  c #3C3C3C",
"-  c #423327",
";  c #453F3C",
":  c #224113",
">  c #2B5019",
",  c #255434",
"<  c #2D633E",
"1  c #58412F",
"2  c #564131",
"3  c #52483F",
"4  c #5B4C3E",
"5  c #624C3B",
"6  c #6A4F3A",
"7  c #6A503D",
"8  c #70523B",
"9  c #78593F",
"0  c #3B7D4F",
"q  c #31406D",
"w  c #444444",
"e  c #4B4745",
"r  c #4D4D4D",
"t  c #5A4E45",
"y  c #5E5349",
"u  c #545454",
"i  c #5B5256",
"p  c #5B5B5B",
"a  c #614E40",
"s  c #645243",
"d  c #6D5541",
"f  c #62564B",
"g  c #63584D",
"h  c #68594B",
"j  c #7B5B42",
"k  c #715C4A",
"l  c #655A50",
"z  c #6C5D52",
"x  c #7D6048",
"c  c #647E40",
"v  c #6C6159",
"b  c #726254",
"n  c #7A6857",
"m  c #7B6B5C",
"M  c #685F61",
"N  c gray39",
"B  c #6B6B6B",
"V  c #717171",
"C  c #896345",
"Z  c #87684E",
"A  c #936D4C",
"S  c #9A6E4C",
"D  c #9A714E",
"F  c #8B6950",
"G  c #826E5D",
"H  c #966F52",
"J  c #84715F",
"K  c #937155",
"L  c #9D7352",
"P  c #9F7858",
"I  c #A27955",
"U  c #A47B5A",
"Y  c #867361",
"T  c #8A7664",
"R  c #877B70",
"E  c #887C72",
"W  c #4E8831",
"Q  c #518D33",
"!  c #579837",
"~  c #599B38",
"^  c #61A73D",
"/  c #63AB3F",
"(  c #9C846E",
")  c #9E8671",
"_  c #AF8564",
"`  c #AE896C",
"'  c #B88F6B",
"]  c #AB8F76",
"[  c #A48A7D",
"{  c #AD927A",
"}  c #B6977D",
"|  c #D48C5B",
" . c #DD9E6F",
".. c #C19773",
"X. c #C59A76",
"o. c #CD9870",
"O. c #C9A27E",
"+. c #DDA073",
"@. c #E3AA7E",
"#. c #4666C4",
"$. c #8F7B82",
"%. c #8E8E8E",
"&. c gray57",
"*. c #AE9485",
"=. c #BD9D82",
"-. c #B89E8E",
";. c #A7A7A7",
":. c #ABAAA9",
">. c #BEA9AC",
",. c #CFA481",
"<. c #C6A589",
"1. c #CDAA8B",
"2. c #D0A681",
"3. c #D2AB8B",
"4. c #C4AA9A",
"5. c #D8B393",
"6. c #E5AD83",
"7. c #E8B58C",
"8. c #EAB990",
"9. c #E3BD9B",
"0. c #E5C09F",
"q. c #EAC29E",
"w. c #F0C39E",
"e. c #EFC6A2",
"r. c #F1C7A3",
"t. c #F3C9A3",
"y. c #F2CCAB",
"u. c #E4C9B7",
"i. c #BAC4E5",
"p. c #BFC9E7",
"a. c #D5D5D5",
"s. c #C0C9E6",
/* pixels */
"/ / / / / / / / / / / / / / / / / / / / / / / / / / / / / / / / / / / / / / / / / / / / / / / / / / / / / / / / / / / / / / / / ",
"/ / / / / / / / / / / / / / / / / / / / / / / / / / / / / / / / / / / / / / / / / / / / / / / / / / / / / / / / / / / / / / / / ",
"/ / / / / / / / / / / / / / / / / / / / / / / / / / / / / / / / / / / / / / / / / / / / / / / / / / / / / / / / / / / / / / / / ",
"/ / / / / / / / / / / / / / / / / / / / / / / / / / / / / / / / / / / / / / / / / / / / / / / / / / / / / / / / / / / / / / / / ",
"/ / / / / / / / / / / / / / / / / / / / / / > >             / / / / / / / / / / / / / / / / / / / / / / / / / / / / / / / / / / ",
"/ / / / / / / / / / / / / / / / / / / / / / > >             / / / / / / / / / / / / / / / / / / / / / / / / / / / / / / / / / / ",
"/ / / / / / / / / / / / / / / / / / / /         $ $ - - - -         / / / / / / / / / / / / / / / / / / / / / / / / / / / / / / ",
"/ / / / / / / / / / / / / / / / / / / /         $ $ - - - -         / / / / / / / / / / / / / / / / / / / / / / / / / / / / / / ",
"/ / / / / / / / / / / / ~ ~         1 1 C C S S L L S S S S 9 9 d d     > > ~ ~ / / / / / / / / / / / / / / / / / / / / / / / / ",
"/ / / / / / / / / / / / ~ ~         1 1 C C S S L L S S S S 9 9 d d     > > ~ ~ / / / / / / / / / / / / / / / / / / / / / / / / ",
"/ / / / / / / / / / / / & & O O 8 8 S S D D L L L L D D D D S S L L 6 6 o o     W W / / / / / / / / / / / / / / / / / / / / / / ",
"/ / / / / / / / / / / / & & O O 8 8 S S D D L L L L D D D D S S L L 6 6 o o     W W / / / / / / / / / / / / / / / / / / / / / / ",
"/ / / / / / / / / /     7 7 P P L L L L a a ; ; K K A A L L L L P P Z Z 4 4 s s     / / / / / / / / / / / / / / / / / / / / / / ",
"/ / / / / / / / / /     7 7 P P L L L L a a ; ; K K A A L L L L P P Z Z 4 4 s s     / / / / / / / / / / / / / / / / / / / / / / ",
"/ / / / / / / / X X 2 2 D D D D A A d d =.=.t.t.f f s s j j j j x x m m ] ] 5 5     / / / / / / / / / / / / / / / / / / / / / / ",
"/ / / / / / / / X X 2 2 D D D D A A d d =.=.t.t.f f s s j j j j x x m m ] ] 5 5     / / / / / / / / / / / / / / / / / / / / / / ",
"/ / / / / / / /     2 2 D D D D d d } } t.t.t.t.t.t.3.3.J J G G T T t.t.1.1.k k # # / / / / / / / / / / / / / / / / / / / / / / ",
"/ / / / / / / /     2 2 D D D D d d } } t.t.t.t.t.t.3.3.J J G G T T t.t.1.1.k k # # / / / / / / / / / / / / / / / / / / / / / / ",
"/ / / / / / / /     7 7 D D A A t t t.t.t.t.t.t.t.t.t.t.t.t.t.t.t.t.t.t.t.t.G G + + / / / / / / / / / / / / / / / / / / / / / / ",
"/ / / / / / / /     7 7 D D A A t t r.t.t.t.t.t.t.t.t.t.t.t.t.t.t.t.t.t.t.t.G G + + / / / / / / / / / / / / / / / / / / / / / / ",
"/ / / / / / / /     d d L L H H y y t.t.t.t.t.t.t.t.t.t.t.t.t.t.t.t.t.t.t.t.J J + + / / / / / / / / / / / / / / / / / / / / / / ",
"/ / / / / / / /     d d L L H H y y t.t.t.t.t.t.t.t.t.t.t.t.t.t.t.t.t.t.t.t.J J + + / / / / / / / / / / / / / / / / / / / / / / ",
"/ / / / / / / /     & & d d F F f f 9.9.t.t.q.q.U U I I X.X.9.9.e.e.9.9.,.,.5 5     W W / / / / / / / / / / / / / / / / / / / / ",
"/ / / / / / / /     & & d d F F f f 9.9.t.t.q.q.U U I I X.X.9.9.e.e.9.9.,.,.5 5     W W / / / / / / / / / / / / / / / / / / / / ",
"/ / / / / / / /         % % z z 5 5 G G t.t.....O.O.4.4.$.$.[ [ q.q.U U *.*.i i     W W / / / / / / / / / / / / / / / / / / / / ",
"/ / / / / / / /         % % z z 5 5 G G t.t.....O.O.4.4.$.$.[ [ q.q.U U *.*.i i     W W / / / / / / / / / / / / / / / / / / / / ",
"/ / / / / / / /         <.<.q.q.b b G G t.t.t.t.9.9.s.s.#.#.p.p.y.y.` ` i.i.q q     W W / / / / / / / / / / / / / / / / / / / / ",
"/ / / / / / / /         <.<.q.q.b b G G t.t.t.t.9.9.s.s.#.#.p.p.y.y.` ` i.i.q q     W W / / / / / / / / / / / / / / / / / / / / ",
"/ / / / / / / / / /         t.t.=.=.G G t.t.t.t.y.y.u.u.>.>.u.u.t.t.3.3.-.-.M M     W W / / / / / / / / / / / / / / / / / / / / ",
"/ / / / / / / / / /         t.t.=.=.G G t.t.t.t.y.y.u.u.>.>.u.u.t.t.3.3.-.-.M M     W W / / / / / / / / / / / / / / / / / / / / ",
"/ / / / / / / / / / Q Q     0.0.0.0.9.9.t.t.t.t.t.t.t.t.t.t.t.t.r.r.e.e.2.2.c c     / / / / / / / / / / / / / / / / / / / / / / ",
"/ / / / / / / / / / Q Q     0.0.0.0.9.9.t.t.t.t.t.t.t.t.t.t.t.t.r.r.e.e.2.2.c c     / / / / / / / / / / / / / / / / / / / / / / ",
"/ / / / / / / / / / ^ ^ Q Q         Y Y t.t.t.t.t.t.q.q.8.8.w.w.' ' _ _ P P h h     / / / / / / / / / / / / / / / / / / / / / / ",
"/ / / / / / / / / / ^ ^ Q Q         Y Y t.t.t.t.t.t.q.q.8.8.w.w.' ' _ _ P P h h     / / / / / / / / / / / / / / / / / / / / / / ",
"/ / / / / / / / / / / / / / Q Q     v v 5.5.t.t.t.t.7.7.| |  . .@.@.6.6.] ]     Q Q / / W W W W / / / / / / / / / / / / / / / / ",
"/ / / / / / / / / / / / / / Q Q     v v 5.5.t.t.t.t.7.7.| |  . .@.@.6.6.] ]     Q Q / / W W W W / / / / / / / / / / / / / / / / ",
"/ / / / / / / / / / / / / / / / / /     E E G G t.t.t.t.t.t.@.@.+.+.o.o.R R : : ! ! W W         3 3 / / / / / / / / / / / / / / ",
"/ / / / / / / / / / / / / / / / / /     E E G G t.t.t.t.t.t.@.@.+.+.o.o.R R : : ! ! W W         3 3 / / / / / / / / / / / / / / ",
"/ / / / / / / / / / / / / / / /     w w r r r r f f T T t.t.t.t.e.e.t t & &             u u b b n n         W W / / / / / / / / ",
"/ / / / / / / / / / / / / / / /     w w r r r r f f T T t.t.t.t.e.e.t t & &             u u b b n n         W W / / / / / / / / ",
"/ / / / / / / / / / / / / / / /     w w p p p p r r :.:.; ; * * e e = = u u r r = = r r u u m m q.q.9.9.{ {     / / / / / / / / ",
"/ / / / / / / / / / / / / / / /     w w p p p p r r :.:.; ; * * e e = = u u r r = = r r u u m m q.q.9.9.{ {     / / / / / / / / ",
"/ / / / / / / / / / / /         & & u u u r u u u u B B %.%.+ + a.a.@ @ & & u u u u p p w w g g <.<.<.<.( (     / / / / / / / / ",
"/ / / / / / / / / / / /         & & u u u u u u u u B B %.%.+ + a.a.@ @ & & u u u u p p w w g g <.<.<.<.( (     / / / / / / / / ",
"/ / / / / / / / / / / /     & & u u r r @ @ = = u u u u N N + + &.&.& & = = p p = = r r                     / / 0 0 0 0 / / / / ",
"/ / / / / / / / / / / /     & & u u r r @ @ = = u u u u N N + + &.&.& & = w p p = = r r                     / / 0 0 0 0 / / / / ",
"/ / / / / / / / / / / /     @ @ r r l l ( ( ) ) w w r r w w w w w w u u B B             , , 0 0 0 0 0 0 / / / / 0 0 0 0 / / / / ",
"/ / / / / / / / / / / /     @ @ r r l l ( ( ) ) w w r r w w w w w w u u B B             , , 0 0 0 0 0 0 / / / / 0 0 0 0 / / / / ",
"/ / / / / / / / / / / /         @ @ h h t.t.t.t.& & u u u u u u p p u u B B     / / Q Q 0 0 0 0 0 0 0 0 / / / / 0 0 0 0 / / / / ",
"/ / / / / / / / / / / /         @ @ h h t.t.t.t.& & u u u u u u p p u u B B     / / Q Q 0 0 0 0 0 0 0 0 / / / / 0 0 0 0 / / / / ",
"/ / / / / / / / / / / / / / / / / /     = = = = & & & & = = & & & & & & V V     / / / / 0 0 0 0 0 0 0 0 / / / / 0 0 0 0 / / / / ",
"/ / / / / / / / / / / / / / / / / /     = = = = & & & & = = & & & & & & V V     / / / / 0 0 0 0 0 0 0 0 / / / / 0 0 0 0 / / / / ",
"/ / / / / / / / / / / / / / / / / /     N N r r V V V V     u u u u r r B B     / / / / 0 0 0 0 / / / / 0 0 0 0 0 0 0 0 / / / / ",
"/ / / / / / / / / / / / / / / / / /     N N r r V V V V     u u u u r r B B     / / / / 0 0 0 0 / / / / 0 0 0 0 0 0 0 0 / / / / ",
"/ / / / / / / / / / / / / / / / / /     w w u u u u ;.;.    r r u u r r B B     / / / / 0 0 0 0 / / / / 0 0 0 0 0 0 0 0 / / / / ",
"/ / / / / / / / / / / / / / / / / /     w w u u u u ;.;.    r r u u r r B B     / / / / 0 0 0 0 / / / / 0 0 0 0 0 0 0 0 / / / / ",
"/ / / / / / / / / / / / / / / /     p p r r u u     W W     u u u u u u         < < 0 0 / / / / / / / / 0 0 0 0 / / / / / / / / ",
"/ / / / / / / / / / / / / / / /     p p r r u u     W W     u u u u u u         < < 0 0 / / / / / / / / 0 0 0 0 / / / / / / / / ",
"/ / / / / / / / / / / / / / / /     . .             / /     u u & & & & & &     < < 0 0 / / / / / / / / 0 0 0 0 / / / / / / / / ",
"/ / / / / / / / / / / / / / / /     . .             / /     u u & & & & & &     < < 0 0 / / / / / / / / 0 0 0 0 / / / / / / / / ",
"/ / / / / / / / / / / / / / / / / / ~ ~ ~ ~ / / / / / / / / / / / / / / / / / / 0 0 0 0 / / / / / / / / / / / / / / / / / / / / ",
"/ / / / / / / / / / / / / / / / / / ~ ~ ~ ~ / / / / / / / / / / / / / / / / / / 0 0 0 0 / / / / / / / / / / / / / / / / / / / / ",
"/ / / / / / / / / / / / / / / / / / / / / / / / / / / / / / / / / / / / / / / / 0 0 0 0 / / / / / / / / / / / / / / / / / / / / ",
"/ / / / / / / / / / / / / / / / / / / / / / / / / / / / / / / / / / / / / / / / 0 0 0 0 / / / / / / / / / / / / / / / / / / / / "
};
